<?xml version="1.0" encoding="UTF-8" standalone="no"?>
<!-- Created with Inkscape (http://www.inkscape.org/) -->

<svg
   xmlns:dc="http://purl.org/dc/elements/1.1/"
   xmlns:cc="http://creativecommons.org/ns#"
   xmlns:rdf="http://www.w3.org/1999/02/22-rdf-syntax-ns#"
   xmlns:svg="http://www.w3.org/2000/svg"
   xmlns="http://www.w3.org/2000/svg"
   xmlns:sodipodi="http://sodipodi.sourceforge.net/DTD/sodipodi-0.dtd"
   xmlns:inkscape="http://www.inkscape.org/namespaces/inkscape"
   width="32"
   height="36"
   viewBox="0 0 8.4666667 9.525"
   version="1.1"
   id="svg1195"
   inkscape:version="0.92.2 (5c3e80d, 2017-08-06)"
   sodipodi:docname="Food.svg"
   inkscape:export-filename="C:\Users\hsmith\PycharmProjects\VirtualAntFarm\images\food.png"
   inkscape:export-xdpi="96"
   inkscape:export-ydpi="96">
  <defs
     id="defs1189">
    <inkscape:perspective
       sodipodi:type="inkscape:persp3d"
       inkscape:vp_x="0 : 4.7625 : 1"
       inkscape:vp_y="0 : 1000 : 0"
       inkscape:vp_z="8.4666667 : 4.7625 : 1"
       inkscape:persp3d-origin="4.2333333 : 3.175 : 1"
       id="perspective2088" />
  </defs>
  <sodipodi:namedview
     id="base"
     pagecolor="#ffffff"
     bordercolor="#666666"
     borderopacity="1.0"
     inkscape:pageopacity="0.0"
     inkscape:pageshadow="2"
     inkscape:zoom="15.839192"
     inkscape:cx="14.489609"
     inkscape:cy="17.824726"
     inkscape:document-units="mm"
     inkscape:current-layer="layer1"
     showgrid="false"
     units="px"
     inkscape:window-width="1920"
     inkscape:window-height="1001"
     inkscape:window-x="-9"
     inkscape:window-y="-9"
     inkscape:window-maximized="1" />
  <metadata
     id="metadata1192">
    <rdf:RDF>
      <cc:Work
         rdf:about="">
        <dc:format>image/svg+xml</dc:format>
        <dc:type
           rdf:resource="http://purl.org/dc/dcmitype/StillImage" />
        <dc:title></dc:title>
      </cc:Work>
    </rdf:RDF>
  </metadata>
  <g
     inkscape:label="Layer 1"
     inkscape:groupmode="layer"
     id="layer1"
     transform="translate(0,-287.47499)">
    <rect
       style="fill:#008000;fill-opacity:1;stroke-width:0.25124517"
       id="rect1197"
       width="8.5334835"
       height="9.6419296"
       x="-2.7755576e-017"
       y="287.47498" />
    <path
       style="fill:none;stroke:#005600;stroke-width:0.13300304;stroke-linecap:butt;stroke-linejoin:miter;stroke-miterlimit:4;stroke-dasharray:none;stroke-opacity:1"
       d="m 0.08813639,297.12152 c 0,0 -0.5803521,-7.86401 0.98407531,-9.19424"
       id="path6802"
       inkscape:connector-curvature="0" />
    <path
       style="fill:none;stroke:#005600;stroke-width:0.13300304;stroke-linecap:butt;stroke-linejoin:miter;stroke-miterlimit:4;stroke-dasharray:none;stroke-opacity:1"
       d="m 1.0469789,297.11691 c 0,0 -1.13547141,-7.864 0.025232,-9.2138"
       id="path6804"
       inkscape:connector-curvature="0" />
    <path
       style="fill:none;stroke:#004c00;stroke-width:0.08645197;stroke-linecap:butt;stroke-linejoin:miter;stroke-miterlimit:4;stroke-dasharray:none;stroke-opacity:1"
       d="m 0.08813639,297.0637 0.95884251,0.0195"
       id="path6806"
       inkscape:connector-curvature="0" />
    <path
       style="fill:#008000;fill-opacity:1;stroke:#00e800;stroke-width:0.00545811;stroke-miterlimit:4;stroke-dasharray:none;stroke-opacity:1"
       d="m 0.22656669,297.1129 c -0.049825,-0.008 -0.054519,-0.0242 -0.069545,-0.24676 -0.080199,-1.1876 -0.1048204,-3.75553 -0.045146,-4.70858 0.069123,-1.10394 0.1690807,-1.93275 0.3078885,-2.55287 0.065366,-0.29203 0.1550942,-0.6191 0.1672541,-0.60967 0.00547,0.004 -0.00732,0.13875 -0.028434,0.29891 -0.1921871,1.45813 -0.074018,4.16842 0.3148019,7.22021 0.041403,0.32497 0.075279,0.59566 0.075279,0.60154 0,0.0121 -0.640302,0.01 -0.722098,-0.003 z"
       id="path6808"
       inkscape:connector-curvature="0" />
    <path
       style="fill:#008000;fill-opacity:1;stroke:#00e800;stroke-width:0.00545811;stroke-miterlimit:4;stroke-dasharray:none;stroke-opacity:1"
       d="m 0.20268089,297.1021 c -0.06098,-0.0765 -0.1225495,-2.30023 -0.1039355,-3.75392 0.017516,-1.3679 0.082613,-2.25884 0.2322675,-3.17886 0.056117,-0.34498 0.1742913,-0.89393 0.2021419,-0.93899 0.012579,-0.0204 0.00363,0.12315 -0.039635,0.63578 -0.033698,0.39925 -0.033576,1.96644 2.044e-4,2.62134 0.064688,1.25409 0.1773836,2.50333 0.3551348,3.9367 0.041015,0.33073 0.074573,0.62343 0.074573,0.65044 v 0.0491 h -0.3517686 c -0.2293525,0 -0.3577591,-0.008 -0.3689826,-0.0216 z"
       id="path6810"
       inkscape:connector-curvature="0" />
    <path
       style="fill:#008000;fill-opacity:1;stroke:#00e800;stroke-width:0.00545811;stroke-miterlimit:4;stroke-dasharray:none;stroke-opacity:1"
       d="m 0.20380959,297.10353 c -0.049166,-0.0617 -0.112945,-1.91154 -0.1126147,-3.26628 4.357e-4,-1.78326 0.108212,-3.10096 0.3440061,-4.20588 0.065885,-0.30873 0.1251509,-0.46008 0.099583,-0.25431 -0.054707,0.4403 -0.070583,1.01068 -0.057987,2.08338 0.018947,1.61353 0.1278904,3.05178 0.3840779,5.0705 0.034407,0.27111 0.062557,0.5154 0.062557,0.54285 v 0.0499 h -0.3517686 c -0.214445,0 -0.358048,-0.008 -0.3678538,-0.0202 z"
       id="path6812"
       inkscape:connector-curvature="0" />
    <path
       style="fill:#008000;fill-opacity:1;stroke:#00e800;stroke-width:0.00545811;stroke-miterlimit:4;stroke-dasharray:none;stroke-opacity:1"
       d="m 0.26738179,297.1074 c -0.058705,-0.0116 -0.064247,-0.0233 -0.079874,-0.16815 -0.076934,-0.7132 -0.1100833,-3.90731 -0.050137,-4.83104 0.063517,-0.97875 0.1431354,-1.65284 0.2714886,-2.29856 0.081712,-0.41108 0.1133886,-0.51319 0.097102,-0.313 -0.00656,0.0807 -0.018889,0.62098 -0.027387,1.20064 -0.026734,1.82359 0.06392,3.26366 0.3578944,5.68527 0.047674,0.39271 0.086743,0.72102 0.086821,0.72958 1.639e-4,0.018 -0.5616168,0.0139 -0.6559083,-0.005 z"
       id="path6814"
       inkscape:connector-curvature="0" />
    <path
       style="fill:#008000;fill-opacity:1;stroke:#00e800;stroke-width:0.00545811;stroke-miterlimit:4;stroke-dasharray:none;stroke-opacity:1"
       d="m 0.35028999,297.11165 c -0.1261166,-0.006 -0.1321628,-0.008 -0.1458764,-0.0685 -0.068219,-0.29841 -0.1170906,-3.88634 -0.065601,-4.8162 0.053879,-0.97303 0.1410353,-1.74662 0.2695469,-2.39247 0.034896,-0.17538 0.074469,-0.33823 0.087938,-0.3619 0.021051,-0.037 0.022613,-0.0348 0.011122,0.0156 -0.00735,0.0323 -0.020479,0.56046 -0.029168,1.17374 -0.026598,1.87714 0.056439,3.23983 0.3433093,5.63392 0.052858,0.44113 0.090709,0.80909 0.084113,0.81769 -0.01092,0.0142 -0.2090041,0.0135 -0.555383,-0.002 z"
       id="path6816"
       inkscape:connector-curvature="0" />
    <path
       style="fill:#008000;fill-opacity:1;stroke:#00e800;stroke-width:0.00545811;stroke-miterlimit:4;stroke-dasharray:none;stroke-opacity:1"
       d="m 0.43232559,297.11777 -0.2009304,-0.01 -0.01859,-0.0685 c -0.046181,-0.17008 -0.079235,-1.39825 -0.081605,-3.03214 -0.00218,-1.50321 0.00419,-1.84862 0.042232,-2.28878 0.058335,-0.67502 0.1064471,-1.07891 0.1829262,-1.53564 0.1310136,-0.7824 0.131241,-0.78142 0.1180778,0.50862 -0.02045,2.00414 0.047877,3.09455 0.3643431,5.81449 0.037844,0.32526 0.062567,0.59622 0.054941,0.60213 -0.020811,0.0161 -0.2351897,0.0206 -0.4613934,0.01 z"
       id="path6818"
       inkscape:connector-curvature="0" />
    <path
       style="fill:#008000;fill-opacity:1;stroke:#00e800;stroke-width:0.00545811;stroke-miterlimit:4;stroke-dasharray:none;stroke-opacity:1"
       d="m 0.24755299,297.11137 c -0.069777,-0.035 -0.089962,-0.68489 -0.091854,-2.95723 -0.00164,-1.96697 0.00355,-2.2935 0.042532,-2.68002 0.061188,-0.60662 0.1114821,-0.98392 0.1877527,-1.40848 0.035757,-0.19905 0.071957,-0.40152 0.080444,-0.44993 0.00849,-0.0484 0.011461,0.47536 0.00661,1.16395 -0.013684,1.94176 0.037853,2.83808 0.2986354,5.19377 0.054194,0.48954 0.1019942,0.9473 0.1062225,1.01724 l 0.00769,0.12715 -0.3027924,0.005 c -0.1665358,0.003 -0.3173927,-0.002 -0.3352375,-0.0114 z"
       id="path6820"
       inkscape:connector-curvature="0" />
    <path
       style="fill:#00ff00;fill-opacity:1;stroke:#00e800;stroke-width:0.00545811;stroke-miterlimit:4;stroke-dasharray:none;stroke-opacity:1"
       d="m 0.31274439,297.1129 c -0.037501,-0.004 -0.074704,-0.024 -0.082672,-0.0435 -0.066463,-0.16234 -0.1172224,-3.92425 -0.066523,-4.93018 0.039881,-0.79128 0.1791394,-1.9635 0.2801352,-2.35807 0.011016,-0.043 0.021351,0.50275 0.022966,1.21286 0.00446,1.96053 0.041677,2.58232 0.2938921,4.91012 0.1273317,1.1752 0.1284648,1.19412 0.07251,1.21077 -0.042773,0.0127 -0.4074701,0.0113 -0.5203094,-0.002 z"
       id="path6822"
       inkscape:connector-curvature="0" />
    <path
       style="fill:none;stroke:#005600;stroke-width:0.13300304;stroke-linecap:butt;stroke-linejoin:miter;stroke-miterlimit:4;stroke-dasharray:none;stroke-opacity:1"
       d="m 0.95972024,297.12152 c 0,0 -0.58035212,-7.86401 0.98407526,-9.19424"
       id="path6802-3"
       inkscape:connector-curvature="0" />
    <path
       style="fill:none;stroke:#005600;stroke-width:0.13300304;stroke-linecap:butt;stroke-linejoin:miter;stroke-miterlimit:4;stroke-dasharray:none;stroke-opacity:1"
       d="m 1.9185627,297.11691 c 0,0 -1.13547136,-7.864 0.025232,-9.2138"
       id="path6804-2"
       inkscape:connector-curvature="0" />
    <path
       style="fill:none;stroke:#004c00;stroke-width:0.08645197;stroke-linecap:butt;stroke-linejoin:miter;stroke-miterlimit:4;stroke-dasharray:none;stroke-opacity:1"
       d="m 0.95972024,297.0637 0.95884246,0.0195"
       id="path6806-1"
       inkscape:connector-curvature="0" />
    <path
       style="fill:#008000;fill-opacity:1;stroke:#00e800;stroke-width:0.00545811;stroke-miterlimit:4;stroke-dasharray:none;stroke-opacity:1"
       d="m 1.0981506,297.1129 c -0.049825,-0.008 -0.054519,-0.0242 -0.069545,-0.24676 -0.080199,-1.1876 -0.10482041,-3.75553 -0.045146,-4.70858 0.069123,-1.10394 0.16908069,-1.93275 0.30788839,-2.55287 0.065366,-0.29203 0.1550942,-0.6191 0.1672542,-0.60967 0.00547,0.004 -0.00732,0.13875 -0.028434,0.29891 -0.1921871,1.45813 -0.074018,4.16842 0.3148019,7.22021 0.041403,0.32497 0.075279,0.59566 0.075279,0.60154 0,0.0121 -0.640302,0.01 -0.7220981,-0.003 z"
       id="path6808-3"
       inkscape:connector-curvature="0" />
    <path
       style="fill:#008000;fill-opacity:1;stroke:#00e800;stroke-width:0.00545811;stroke-miterlimit:4;stroke-dasharray:none;stroke-opacity:1"
       d="m 1.0742647,297.1021 c -0.06098,-0.0765 -0.12254946,-2.30023 -0.10393546,-3.75392 0.017516,-1.3679 0.082613,-2.25884 0.23226756,-3.17886 0.056117,-0.34498 0.1742912,-0.89393 0.2021418,-0.93899 0.012579,-0.0204 0.00363,0.12315 -0.039635,0.63578 -0.033698,0.39925 -0.033576,1.96644 2.044e-4,2.62134 0.064688,1.25409 0.1773836,2.50333 0.3551348,3.9367 0.041015,0.33073 0.074573,0.62343 0.074573,0.65044 v 0.0491 H 1.4432473 c -0.2293525,0 -0.3577592,-0.008 -0.3689827,-0.0216 z"
       id="path6810-3"
       inkscape:connector-curvature="0" />
    <path
       style="fill:#008000;fill-opacity:1;stroke:#00e800;stroke-width:0.00545811;stroke-miterlimit:4;stroke-dasharray:none;stroke-opacity:1"
       d="m 1.0753934,297.10353 c -0.049166,-0.0617 -0.11294496,-1.91154 -0.11261466,-3.26628 4.357e-4,-1.78326 0.10821196,-3.10096 0.34400616,-4.20588 0.065885,-0.30873 0.1251508,-0.46008 0.099583,-0.25431 -0.054707,0.4403 -0.070583,1.01068 -0.057987,2.08338 0.018947,1.61353 0.1278904,3.05178 0.3840779,5.0705 0.034407,0.27111 0.062557,0.5154 0.062557,0.54285 v 0.0499 H 1.4432472 c -0.214445,0 -0.3580481,-0.008 -0.3678539,-0.0202 z"
       id="path6812-3"
       inkscape:connector-curvature="0" />
    <path
       style="fill:#008000;fill-opacity:1;stroke:#00e800;stroke-width:0.00545811;stroke-miterlimit:4;stroke-dasharray:none;stroke-opacity:1"
       d="m 1.1389657,297.1074 c -0.058705,-0.0116 -0.064247,-0.0233 -0.079874,-0.16815 -0.076934,-0.7132 -0.11008332,-3.90731 -0.050137,-4.83104 0.063517,-0.97875 0.1431354,-1.65284 0.2714885,-2.29856 0.081712,-0.41108 0.1133887,-0.51319 0.097102,-0.313 -0.00656,0.0807 -0.018889,0.62098 -0.027387,1.20064 -0.026734,1.82359 0.06392,3.26366 0.3578945,5.68527 0.047674,0.39271 0.086743,0.72102 0.086821,0.72958 1.639e-4,0.018 -0.5616168,0.0139 -0.6559083,-0.005 z"
       id="path6814-3"
       inkscape:connector-curvature="0" />
    <path
       style="fill:#008000;fill-opacity:1;stroke:#00e800;stroke-width:0.00545811;stroke-miterlimit:4;stroke-dasharray:none;stroke-opacity:1"
       d="m 1.2218739,297.11165 c -0.1261167,-0.006 -0.1321629,-0.008 -0.1458765,-0.0685 -0.068219,-0.29841 -0.11709056,-3.88634 -0.065601,-4.8162 0.053879,-0.97303 0.1410353,-1.74662 0.269547,-2.39247 0.034896,-0.17538 0.074469,-0.33823 0.087938,-0.3619 0.021051,-0.037 0.022613,-0.0348 0.011122,0.0156 -0.00735,0.0323 -0.020479,0.56046 -0.029168,1.17374 -0.026598,1.87714 0.056439,3.23983 0.3433093,5.63392 0.052858,0.44113 0.090709,0.80909 0.084113,0.81769 -0.01092,0.0142 -0.2090041,0.0135 -0.555383,-0.002 z"
       id="path6816-4"
       inkscape:connector-curvature="0" />
    <path
       style="fill:#008000;fill-opacity:1;stroke:#00e800;stroke-width:0.00545811;stroke-miterlimit:4;stroke-dasharray:none;stroke-opacity:1"
       d="m 1.3039094,297.11777 -0.2009304,-0.01 -0.01859,-0.0685 c -0.046181,-0.17008 -0.079235,-1.39825 -0.081605,-3.03214 -0.00218,-1.50321 0.00419,-1.84862 0.042232,-2.28878 0.058335,-0.67502 0.106447,-1.07891 0.1829262,-1.53564 0.1310136,-0.7824 0.131241,-0.78142 0.1180778,0.50862 -0.02045,2.00414 0.047877,3.09455 0.3643431,5.81449 0.037844,0.32526 0.062567,0.59622 0.054941,0.60213 -0.020811,0.0161 -0.2351897,0.0206 -0.4613934,0.01 z"
       id="path6818-0"
       inkscape:connector-curvature="0" />
    <path
       style="fill:#008000;fill-opacity:1;stroke:#00e800;stroke-width:0.00545811;stroke-miterlimit:4;stroke-dasharray:none;stroke-opacity:1"
       d="m 1.1191369,297.11137 c -0.069777,-0.035 -0.089962,-0.68489 -0.091854,-2.95723 -0.00164,-1.96697 0.00355,-2.2935 0.042532,-2.68002 0.061188,-0.60662 0.1114821,-0.98392 0.1877527,-1.40848 0.035757,-0.19905 0.071957,-0.40152 0.080444,-0.44993 0.00849,-0.0484 0.011461,0.47536 0.00661,1.16395 -0.013684,1.94176 0.037853,2.83808 0.2986354,5.19377 0.054194,0.48954 0.1019942,0.9473 0.1062225,1.01724 l 0.00769,0.12715 -0.3027925,0.005 c -0.1665357,0.003 -0.3173926,-0.002 -0.3352374,-0.0114 z"
       id="path6820-8"
       inkscape:connector-curvature="0" />
    <path
       style="fill:#00ff00;fill-opacity:1;stroke:#00e800;stroke-width:0.00545811;stroke-miterlimit:4;stroke-dasharray:none;stroke-opacity:1"
       d="m 1.1843283,297.1129 c -0.037501,-0.004 -0.074704,-0.024 -0.082672,-0.0435 -0.066463,-0.16234 -0.11722243,-3.92425 -0.066523,-4.93018 0.039881,-0.79128 0.1791394,-1.9635 0.2801352,-2.35807 0.011016,-0.043 0.021351,0.50275 0.022966,1.21286 0.00446,1.96053 0.041677,2.58232 0.2938921,4.91012 0.1273317,1.1752 0.1284648,1.19412 0.07251,1.21077 -0.042773,0.0127 -0.4074701,0.0113 -0.5203083,-0.002 z"
       id="path6822-0"
       inkscape:connector-curvature="0" />
    <path
       style="fill:none;stroke:#005600;stroke-width:0.13300304;stroke-linecap:butt;stroke-linejoin:miter;stroke-miterlimit:4;stroke-dasharray:none;stroke-opacity:1"
       d="m 1.8951636,297.12152 c 0,0 -0.5803521,-7.86401 0.9840753,-9.19424"
       id="path6802-35"
       inkscape:connector-curvature="0" />
    <path
       style="fill:none;stroke:#005600;stroke-width:0.13300304;stroke-linecap:butt;stroke-linejoin:miter;stroke-miterlimit:4;stroke-dasharray:none;stroke-opacity:1"
       d="m 2.8540061,297.11691 c 0,0 -1.1354714,-7.864 0.025232,-9.2138"
       id="path6804-7"
       inkscape:connector-curvature="0" />
    <path
       style="fill:none;stroke:#004c00;stroke-width:0.08645197;stroke-linecap:butt;stroke-linejoin:miter;stroke-miterlimit:4;stroke-dasharray:none;stroke-opacity:1"
       d="m 1.8951636,297.0637 0.9588425,0.0195"
       id="path6806-4"
       inkscape:connector-curvature="0" />
    <path
       style="fill:#008000;fill-opacity:1;stroke:#00e800;stroke-width:0.00545811;stroke-miterlimit:4;stroke-dasharray:none;stroke-opacity:1"
       d="m 2.0335939,297.1129 c -0.049825,-0.008 -0.054519,-0.0242 -0.069545,-0.24676 -0.080199,-1.1876 -0.1048204,-3.75553 -0.045146,-4.70858 0.069123,-1.10394 0.1690807,-1.93275 0.3078885,-2.55287 0.065366,-0.29203 0.1550942,-0.6191 0.1672541,-0.60967 0.00547,0.004 -0.00732,0.13875 -0.028434,0.29891 -0.1921871,1.45813 -0.074018,4.16842 0.3148019,7.22021 0.041403,0.32497 0.075279,0.59566 0.075279,0.60154 0,0.0121 -0.640302,0.01 -0.722098,-0.003 z"
       id="path6808-0"
       inkscape:connector-curvature="0" />
    <path
       style="fill:#008000;fill-opacity:1;stroke:#00e800;stroke-width:0.00545811;stroke-miterlimit:4;stroke-dasharray:none;stroke-opacity:1"
       d="m 2.0097081,297.1021 c -0.06098,-0.0765 -0.1225495,-2.30023 -0.1039355,-3.75392 0.017516,-1.3679 0.082613,-2.25884 0.2322675,-3.17886 0.056117,-0.34498 0.1742913,-0.89393 0.2021419,-0.93899 0.012579,-0.0204 0.00363,0.12315 -0.039635,0.63578 -0.033698,0.39925 -0.033576,1.96644 2.044e-4,2.62134 0.064688,1.25409 0.1773836,2.50333 0.3551348,3.9367 0.041015,0.33073 0.074573,0.62343 0.074573,0.65044 v 0.0491 H 2.3786906 c -0.2293525,0 -0.3577591,-0.008 -0.3689826,-0.0216 z"
       id="path6810-6"
       inkscape:connector-curvature="0" />
    <path
       style="fill:#008000;fill-opacity:1;stroke:#00e800;stroke-width:0.00545811;stroke-miterlimit:4;stroke-dasharray:none;stroke-opacity:1"
       d="m 2.0108368,297.10353 c -0.049166,-0.0617 -0.112945,-1.91154 -0.1126147,-3.26628 4.357e-4,-1.78326 0.108212,-3.10096 0.3440061,-4.20588 0.065885,-0.30873 0.1251509,-0.46008 0.099583,-0.25431 -0.054707,0.4403 -0.070583,1.01068 -0.057987,2.08338 0.018947,1.61353 0.1278904,3.05178 0.3840779,5.0705 0.034407,0.27111 0.062557,0.5154 0.062557,0.54285 v 0.0499 H 2.3786905 c -0.214445,0 -0.358048,-0.008 -0.3678538,-0.0202 z"
       id="path6812-1"
       inkscape:connector-curvature="0" />
    <path
       style="fill:#008000;fill-opacity:1;stroke:#00e800;stroke-width:0.00545811;stroke-miterlimit:4;stroke-dasharray:none;stroke-opacity:1"
       d="m 2.074409,297.1074 c -0.058705,-0.0116 -0.064247,-0.0233 -0.079874,-0.16815 -0.076934,-0.7132 -0.1100833,-3.90731 -0.050137,-4.83104 0.063517,-0.97875 0.1431354,-1.65284 0.2714886,-2.29856 0.081712,-0.41108 0.1133886,-0.51319 0.097102,-0.313 -0.00656,0.0807 -0.018889,0.62098 -0.027387,1.20064 -0.026734,1.82359 0.06392,3.26366 0.3578944,5.68527 0.047674,0.39271 0.086743,0.72102 0.086821,0.72958 1.639e-4,0.018 -0.5616167,0.0139 -0.6559082,-0.005 z"
       id="path6814-4"
       inkscape:connector-curvature="0" />
    <path
       style="fill:#008000;fill-opacity:1;stroke:#00e800;stroke-width:0.00545811;stroke-miterlimit:4;stroke-dasharray:none;stroke-opacity:1"
       d="m 2.1573172,297.11165 c -0.1261166,-0.006 -0.1321628,-0.008 -0.1458764,-0.0685 -0.068219,-0.29841 -0.1170906,-3.88634 -0.065601,-4.8162 0.053879,-0.97303 0.1410353,-1.74662 0.2695469,-2.39247 0.034896,-0.17538 0.074469,-0.33823 0.087938,-0.3619 0.021051,-0.037 0.022613,-0.0348 0.011122,0.0156 -0.00735,0.0323 -0.020479,0.56046 -0.029168,1.17374 -0.026598,1.87714 0.056439,3.23983 0.3433093,5.63392 0.052858,0.44113 0.090709,0.80909 0.084113,0.81769 -0.01092,0.0142 -0.2090041,0.0135 -0.555383,-0.002 z"
       id="path6816-2"
       inkscape:connector-curvature="0" />
    <path
       style="fill:#008000;fill-opacity:1;stroke:#00e800;stroke-width:0.00545811;stroke-miterlimit:4;stroke-dasharray:none;stroke-opacity:1"
       d="m 2.2393528,297.11777 -0.2009304,-0.01 -0.01859,-0.0685 c -0.046181,-0.17008 -0.079235,-1.39825 -0.081605,-3.03214 -0.00218,-1.50321 0.00419,-1.84862 0.042232,-2.28878 0.058335,-0.67502 0.1064471,-1.07891 0.1829262,-1.53564 0.1310136,-0.7824 0.131241,-0.78142 0.1180778,0.50862 -0.02045,2.00414 0.047877,3.09455 0.3643431,5.81449 0.037844,0.32526 0.062567,0.59622 0.054941,0.60213 -0.020811,0.0161 -0.2351897,0.0206 -0.4613934,0.01 z"
       id="path6818-8"
       inkscape:connector-curvature="0" />
    <path
       style="fill:#008000;fill-opacity:1;stroke:#00e800;stroke-width:0.00545811;stroke-miterlimit:4;stroke-dasharray:none;stroke-opacity:1"
       d="m 2.0545802,297.11137 c -0.069777,-0.035 -0.089962,-0.68489 -0.091854,-2.95723 -0.00164,-1.96697 0.00355,-2.2935 0.042532,-2.68002 0.061188,-0.60662 0.1114821,-0.98392 0.1877527,-1.40848 0.035757,-0.19905 0.071957,-0.40152 0.080444,-0.44993 0.00849,-0.0484 0.011461,0.47536 0.00661,1.16395 -0.013684,1.94176 0.037853,2.83808 0.2986354,5.19377 0.054194,0.48954 0.1019942,0.9473 0.1062225,1.01724 l 0.00769,0.12715 -0.3027924,0.005 c -0.1665358,0.003 -0.3173927,-0.002 -0.3352375,-0.0114 z"
       id="path6820-6"
       inkscape:connector-curvature="0" />
    <path
       style="fill:#00ff00;fill-opacity:1;stroke:#00e800;stroke-width:0.00545811;stroke-miterlimit:4;stroke-dasharray:none;stroke-opacity:1"
       d="m 2.1197716,297.1129 c -0.037501,-0.004 -0.074704,-0.024 -0.082672,-0.0435 -0.066463,-0.16234 -0.1172224,-3.92425 -0.066523,-4.93018 0.039881,-0.79128 0.1791394,-1.9635 0.2801352,-2.35807 0.011016,-0.043 0.021351,0.50275 0.022966,1.21286 0.00446,1.96053 0.041677,2.58232 0.2938921,4.91012 0.1273317,1.1752 0.1284648,1.19412 0.07251,1.21077 -0.042773,0.0127 -0.4074701,0.0113 -0.5203083,-0.002 z"
       id="path6822-7"
       inkscape:connector-curvature="0" />
    <path
       style="fill:none;stroke:#005600;stroke-width:0.13300304;stroke-linecap:butt;stroke-linejoin:miter;stroke-miterlimit:4;stroke-dasharray:none;stroke-opacity:1"
       d="m 3.2649199,297.12152 c 0,0 -0.5803521,-7.86401 0.9840753,-9.19424"
       id="path6802-1"
       inkscape:connector-curvature="0" />
    <path
       style="fill:none;stroke:#005600;stroke-width:0.13300304;stroke-linecap:butt;stroke-linejoin:miter;stroke-miterlimit:4;stroke-dasharray:none;stroke-opacity:1"
       d="m 4.2237624,297.11691 c 0,0 -1.1354714,-7.864 0.025232,-9.2138"
       id="path6804-4"
       inkscape:connector-curvature="0" />
    <path
       style="fill:none;stroke:#004c00;stroke-width:0.08645197;stroke-linecap:butt;stroke-linejoin:miter;stroke-miterlimit:4;stroke-dasharray:none;stroke-opacity:1"
       d="m 3.2649199,297.0637 0.9588425,0.0195"
       id="path6806-13"
       inkscape:connector-curvature="0" />
    <path
       style="fill:#008000;fill-opacity:1;stroke:#00e800;stroke-width:0.00545811;stroke-miterlimit:4;stroke-dasharray:none;stroke-opacity:1"
       d="m 3.4033502,297.1129 c -0.049825,-0.008 -0.054519,-0.0242 -0.069545,-0.24676 -0.080199,-1.1876 -0.1048204,-3.75553 -0.045146,-4.70858 0.069123,-1.10394 0.1690807,-1.93275 0.3078885,-2.55287 0.065366,-0.29203 0.1550942,-0.6191 0.1672541,-0.60967 0.00547,0.004 -0.00732,0.13875 -0.028434,0.29891 -0.1921871,1.45813 -0.074018,4.16842 0.3148019,7.22021 0.041403,0.32497 0.075279,0.59566 0.075279,0.60154 0,0.0121 -0.640302,0.01 -0.722098,-0.003 z"
       id="path6808-9"
       inkscape:connector-curvature="0" />
    <path
       style="fill:#008000;fill-opacity:1;stroke:#00e800;stroke-width:0.00545811;stroke-miterlimit:4;stroke-dasharray:none;stroke-opacity:1"
       d="m 3.3794644,297.1021 c -0.06098,-0.0765 -0.1225495,-2.30023 -0.1039355,-3.75392 0.017516,-1.3679 0.082613,-2.25884 0.2322675,-3.17886 0.056117,-0.34498 0.1742913,-0.89393 0.2021419,-0.93899 0.012579,-0.0204 0.00363,0.12315 -0.039635,0.63578 -0.033698,0.39925 -0.033576,1.96644 2.044e-4,2.62134 0.064688,1.25409 0.1773836,2.50333 0.3551348,3.9367 0.041015,0.33073 0.074573,0.62343 0.074573,0.65044 v 0.0491 H 3.7484469 c -0.2293525,0 -0.3577591,-0.008 -0.3689826,-0.0216 z"
       id="path6810-2"
       inkscape:connector-curvature="0" />
    <path
       style="fill:#008000;fill-opacity:1;stroke:#00e800;stroke-width:0.00545811;stroke-miterlimit:4;stroke-dasharray:none;stroke-opacity:1"
       d="m 3.3805931,297.10353 c -0.049166,-0.0617 -0.112945,-1.91154 -0.1126147,-3.26628 4.357e-4,-1.78326 0.108212,-3.10096 0.3440061,-4.20588 0.065885,-0.30873 0.1251509,-0.46008 0.099583,-0.25431 -0.054707,0.4403 -0.070583,1.01068 -0.057987,2.08338 0.018947,1.61353 0.1278904,3.05178 0.3840779,5.0705 0.034407,0.27111 0.062557,0.5154 0.062557,0.54285 v 0.0499 H 3.7484468 c -0.214445,0 -0.358048,-0.008 -0.3678538,-0.0202 z"
       id="path6812-9"
       inkscape:connector-curvature="0" />
    <path
       style="fill:#008000;fill-opacity:1;stroke:#00e800;stroke-width:0.00545811;stroke-miterlimit:4;stroke-dasharray:none;stroke-opacity:1"
       d="m 3.4441653,297.1074 c -0.058705,-0.0116 -0.064247,-0.0233 -0.079874,-0.16815 -0.076934,-0.7132 -0.1100833,-3.90731 -0.050137,-4.83104 0.063517,-0.97875 0.1431354,-1.65284 0.2714886,-2.29856 0.081712,-0.41108 0.1133886,-0.51319 0.097102,-0.313 -0.00656,0.0807 -0.018889,0.62098 -0.027387,1.20064 -0.026734,1.82359 0.06392,3.26366 0.3578944,5.68527 0.047674,0.39271 0.086743,0.72102 0.086821,0.72958 1.639e-4,0.018 -0.5616167,0.0139 -0.6559082,-0.005 z"
       id="path6814-8"
       inkscape:connector-curvature="0" />
    <path
       style="fill:#008000;fill-opacity:1;stroke:#00e800;stroke-width:0.00545811;stroke-miterlimit:4;stroke-dasharray:none;stroke-opacity:1"
       d="m 3.5270735,297.11165 c -0.1261166,-0.006 -0.1321628,-0.008 -0.1458764,-0.0685 -0.068219,-0.29841 -0.1170906,-3.88634 -0.065601,-4.8162 0.053879,-0.97303 0.1410353,-1.74662 0.2695469,-2.39247 0.034896,-0.17538 0.074469,-0.33823 0.087938,-0.3619 0.021051,-0.037 0.022613,-0.0348 0.011122,0.0156 -0.00735,0.0323 -0.020479,0.56046 -0.029168,1.17374 -0.026598,1.87714 0.056439,3.23983 0.3433093,5.63392 0.052858,0.44113 0.090709,0.80909 0.084113,0.81769 -0.01092,0.0142 -0.2090041,0.0135 -0.555383,-0.002 z"
       id="path6816-5"
       inkscape:connector-curvature="0" />
    <path
       style="fill:#008000;fill-opacity:1;stroke:#00e800;stroke-width:0.00545811;stroke-miterlimit:4;stroke-dasharray:none;stroke-opacity:1"
       d="m 3.6091091,297.11777 -0.2009304,-0.01 -0.01859,-0.0685 c -0.046181,-0.17008 -0.079235,-1.39825 -0.081605,-3.03214 -0.00218,-1.50321 0.00419,-1.84862 0.042232,-2.28878 0.058335,-0.67502 0.1064471,-1.07891 0.1829262,-1.53564 0.1310136,-0.7824 0.131241,-0.78142 0.1180778,0.50862 -0.02045,2.00414 0.047877,3.09455 0.3643431,5.81449 0.037844,0.32526 0.062567,0.59622 0.054941,0.60213 -0.020811,0.0161 -0.2351897,0.0206 -0.4613934,0.01 z"
       id="path6818-1"
       inkscape:connector-curvature="0" />
    <path
       style="fill:#008000;fill-opacity:1;stroke:#00e800;stroke-width:0.00545811;stroke-miterlimit:4;stroke-dasharray:none;stroke-opacity:1"
       d="m 3.4243365,297.11137 c -0.069777,-0.035 -0.089962,-0.68489 -0.091854,-2.95723 -0.00164,-1.96697 0.00355,-2.2935 0.042532,-2.68002 0.061188,-0.60662 0.1114821,-0.98392 0.1877527,-1.40848 0.035757,-0.19905 0.071957,-0.40152 0.080444,-0.44993 0.00849,-0.0484 0.011461,0.47536 0.00661,1.16395 -0.013684,1.94176 0.037853,2.83808 0.2986354,5.19377 0.054194,0.48954 0.1019942,0.9473 0.1062225,1.01724 l 0.00769,0.12715 -0.3027924,0.005 c -0.1665358,0.003 -0.3173927,-0.002 -0.3352375,-0.0114 z"
       id="path6820-2"
       inkscape:connector-curvature="0" />
    <path
       style="fill:#00ff00;fill-opacity:1;stroke:#00e800;stroke-width:0.00545811;stroke-miterlimit:4;stroke-dasharray:none;stroke-opacity:1"
       d="m 3.4895279,297.1129 c -0.037501,-0.004 -0.074704,-0.024 -0.082672,-0.0435 -0.066463,-0.16234 -0.1172223,-3.92425 -0.066523,-4.93018 0.039881,-0.79128 0.1791394,-1.9635 0.2801353,-2.35807 0.011016,-0.043 0.021351,0.50275 0.022966,1.21286 0.00446,1.96053 0.041677,2.58232 0.2938921,4.91012 0.1273317,1.1752 0.1284647,1.19412 0.07251,1.21077 -0.042773,0.0127 -0.4074701,0.0113 -0.5203084,-0.002 z"
       id="path6822-3"
       inkscape:connector-curvature="0" />
    <path
       style="fill:none;stroke:#005600;stroke-width:0.13300304;stroke-linecap:butt;stroke-linejoin:miter;stroke-miterlimit:4;stroke-dasharray:none;stroke-opacity:1"
       d="m 4.4342241,297.12152 c 0,0 -0.5803521,-7.86401 0.9840753,-9.19424"
       id="path6802-18"
       inkscape:connector-curvature="0" />
    <path
       style="fill:none;stroke:#005600;stroke-width:0.13300304;stroke-linecap:butt;stroke-linejoin:miter;stroke-miterlimit:4;stroke-dasharray:none;stroke-opacity:1"
       d="m 5.3930666,297.11691 c 0,0 -1.1354714,-7.864 0.025232,-9.2138"
       id="path6804-1"
       inkscape:connector-curvature="0" />
    <path
       style="fill:none;stroke:#004c00;stroke-width:0.08645197;stroke-linecap:butt;stroke-linejoin:miter;stroke-miterlimit:4;stroke-dasharray:none;stroke-opacity:1"
       d="m 4.4342241,297.0637 0.9588425,0.0195"
       id="path6806-3"
       inkscape:connector-curvature="0" />
    <path
       style="fill:#008000;fill-opacity:1;stroke:#00e800;stroke-width:0.00545811;stroke-miterlimit:4;stroke-dasharray:none;stroke-opacity:1"
       d="m 4.5726544,297.1129 c -0.049825,-0.008 -0.054519,-0.0242 -0.069545,-0.24676 -0.080199,-1.1876 -0.1048204,-3.75553 -0.045146,-4.70858 0.069123,-1.10394 0.1690807,-1.93275 0.3078885,-2.55287 0.065366,-0.29203 0.1550942,-0.6191 0.1672541,-0.60967 0.00547,0.004 -0.00732,0.13875 -0.028434,0.29891 -0.1921871,1.45813 -0.074018,4.16842 0.3148019,7.22021 0.041403,0.32497 0.075279,0.59566 0.075279,0.60154 0,0.0121 -0.640302,0.01 -0.722098,-0.003 z"
       id="path6808-96"
       inkscape:connector-curvature="0" />
    <path
       style="fill:#008000;fill-opacity:1;stroke:#00e800;stroke-width:0.00545811;stroke-miterlimit:4;stroke-dasharray:none;stroke-opacity:1"
       d="m 4.5487686,297.1021 c -0.06098,-0.0765 -0.1225495,-2.30023 -0.1039355,-3.75392 0.017516,-1.3679 0.082613,-2.25884 0.2322675,-3.17886 0.056117,-0.34498 0.1742913,-0.89393 0.2021419,-0.93899 0.012579,-0.0204 0.00363,0.12315 -0.039635,0.63578 -0.033698,0.39925 -0.033576,1.96644 2.044e-4,2.62134 0.064688,1.25409 0.1773836,2.50333 0.3551348,3.9367 0.041015,0.33073 0.074573,0.62343 0.074573,0.65044 v 0.0491 H 4.9177511 c -0.2293525,0 -0.3577591,-0.008 -0.3689826,-0.0216 z"
       id="path6810-7"
       inkscape:connector-curvature="0" />
    <path
       style="fill:#008000;fill-opacity:1;stroke:#00e800;stroke-width:0.00545811;stroke-miterlimit:4;stroke-dasharray:none;stroke-opacity:1"
       d="m 4.5498973,297.10353 c -0.049166,-0.0617 -0.112945,-1.91154 -0.1126147,-3.26628 4.357e-4,-1.78326 0.108212,-3.10096 0.3440061,-4.20588 0.065885,-0.30873 0.1251509,-0.46008 0.099583,-0.25431 -0.054707,0.4403 -0.070583,1.01068 -0.057987,2.08338 0.018947,1.61353 0.1278904,3.05178 0.3840779,5.0705 0.034407,0.27111 0.062557,0.5154 0.062557,0.54285 v 0.0499 H 4.917751 c -0.214445,0 -0.358048,-0.008 -0.3678538,-0.0202 z"
       id="path6812-7"
       inkscape:connector-curvature="0" />
    <path
       style="fill:#008000;fill-opacity:1;stroke:#00e800;stroke-width:0.00545811;stroke-miterlimit:4;stroke-dasharray:none;stroke-opacity:1"
       d="m 4.6134695,297.1074 c -0.058705,-0.0116 -0.064247,-0.0233 -0.079874,-0.16815 -0.076934,-0.7132 -0.1100833,-3.90731 -0.050137,-4.83104 0.063517,-0.97875 0.1431354,-1.65284 0.2714886,-2.29856 0.081712,-0.41108 0.1133886,-0.51319 0.097102,-0.313 -0.00656,0.0807 -0.018889,0.62098 -0.027387,1.20064 -0.026734,1.82359 0.06392,3.26366 0.3578944,5.68527 0.047674,0.39271 0.086743,0.72102 0.086821,0.72958 1.639e-4,0.018 -0.5616167,0.0139 -0.6559082,-0.005 z"
       id="path6814-83"
       inkscape:connector-curvature="0" />
    <path
       style="fill:#008000;fill-opacity:1;stroke:#00e800;stroke-width:0.00545811;stroke-miterlimit:4;stroke-dasharray:none;stroke-opacity:1"
       d="m 4.6963777,297.11165 c -0.1261166,-0.006 -0.1321628,-0.008 -0.1458764,-0.0685 -0.068219,-0.29841 -0.1170906,-3.88634 -0.065601,-4.8162 0.053879,-0.97303 0.1410353,-1.74662 0.2695469,-2.39247 0.034896,-0.17538 0.074469,-0.33823 0.087938,-0.3619 0.021051,-0.037 0.022613,-0.0348 0.011122,0.0156 -0.00735,0.0323 -0.020479,0.56046 -0.029168,1.17374 -0.026598,1.87714 0.056439,3.23983 0.3433093,5.63392 0.052858,0.44113 0.090709,0.80909 0.084113,0.81769 -0.01092,0.0142 -0.2090041,0.0135 -0.555383,-0.002 z"
       id="path6816-0"
       inkscape:connector-curvature="0" />
    <path
       style="fill:#008000;fill-opacity:1;stroke:#00e800;stroke-width:0.00545811;stroke-miterlimit:4;stroke-dasharray:none;stroke-opacity:1"
       d="m 4.7784133,297.11777 -0.2009304,-0.01 -0.01859,-0.0685 c -0.046181,-0.17008 -0.079235,-1.39825 -0.081605,-3.03214 -0.00218,-1.50321 0.00419,-1.84862 0.042232,-2.28878 0.058335,-0.67502 0.1064471,-1.07891 0.1829262,-1.53564 0.1310136,-0.7824 0.131241,-0.78142 0.1180778,0.50862 -0.02045,2.00414 0.047877,3.09455 0.3643431,5.81449 0.037844,0.32526 0.062567,0.59622 0.054941,0.60213 -0.020811,0.0161 -0.2351897,0.0206 -0.4613934,0.01 z"
       id="path6818-5"
       inkscape:connector-curvature="0" />
    <path
       style="fill:#008000;fill-opacity:1;stroke:#00e800;stroke-width:0.00545811;stroke-miterlimit:4;stroke-dasharray:none;stroke-opacity:1"
       d="m 4.5936407,297.11137 c -0.069777,-0.035 -0.089962,-0.68489 -0.091854,-2.95723 -0.00164,-1.96697 0.00355,-2.2935 0.042532,-2.68002 0.061188,-0.60662 0.1114821,-0.98392 0.1877527,-1.40848 0.035757,-0.19905 0.071957,-0.40152 0.080444,-0.44993 0.00849,-0.0484 0.011461,0.47536 0.00661,1.16395 -0.013684,1.94176 0.037853,2.83808 0.2986354,5.19377 0.054194,0.48954 0.1019942,0.9473 0.1062225,1.01724 l 0.00769,0.12715 -0.3027924,0.005 c -0.1665358,0.003 -0.3173927,-0.002 -0.3352375,-0.0114 z"
       id="path6820-0"
       inkscape:connector-curvature="0" />
    <path
       style="fill:#00ff00;fill-opacity:1;stroke:#00e800;stroke-width:0.00545811;stroke-miterlimit:4;stroke-dasharray:none;stroke-opacity:1"
       d="m 4.6588321,297.1129 c -0.037501,-0.004 -0.074704,-0.024 -0.082672,-0.0435 -0.066463,-0.16234 -0.1172224,-3.92425 -0.066523,-4.93018 0.039881,-0.79128 0.1791394,-1.9635 0.2801353,-2.35807 0.011016,-0.043 0.021351,0.50275 0.022966,1.21286 0.00446,1.96053 0.041677,2.58232 0.2938921,4.91012 0.1273317,1.1752 0.1284647,1.19412 0.07251,1.21077 -0.042773,0.0127 -0.4074702,0.0113 -0.5203084,-0.002 z"
       id="path6822-2"
       inkscape:connector-curvature="0" />
    <path
       style="fill:none;stroke:#005600;stroke-width:0.13300304;stroke-linecap:butt;stroke-linejoin:miter;stroke-miterlimit:4;stroke-dasharray:none;stroke-opacity:1"
       d="m 5.152511,297.12152 c 0,0 -0.5803521,-7.86401 0.9840752,-9.19424"
       id="path6802-2"
       inkscape:connector-curvature="0" />
    <path
       style="fill:none;stroke:#005600;stroke-width:0.13300304;stroke-linecap:butt;stroke-linejoin:miter;stroke-miterlimit:4;stroke-dasharray:none;stroke-opacity:1"
       d="m 6.1113534,297.11691 c 0,0 -1.1354713,-7.864 0.025232,-9.2138"
       id="path6804-41"
       inkscape:connector-curvature="0" />
    <path
       style="fill:none;stroke:#004c00;stroke-width:0.08645197;stroke-linecap:butt;stroke-linejoin:miter;stroke-miterlimit:4;stroke-dasharray:none;stroke-opacity:1"
       d="m 5.152511,297.0637 0.9588424,0.0195"
       id="path6806-8"
       inkscape:connector-curvature="0" />
    <path
       style="fill:#008000;fill-opacity:1;stroke:#00e800;stroke-width:0.00545811;stroke-miterlimit:4;stroke-dasharray:none;stroke-opacity:1"
       d="m 5.2909413,297.1129 c -0.049825,-0.008 -0.054519,-0.0242 -0.069545,-0.24676 -0.080199,-1.1876 -0.1048204,-3.75553 -0.045146,-4.70858 0.069123,-1.10394 0.1690807,-1.93275 0.3078885,-2.55287 0.065366,-0.29203 0.1550942,-0.6191 0.1672541,-0.60967 0.00547,0.004 -0.00732,0.13875 -0.028434,0.29891 -0.1921871,1.45813 -0.074018,4.16842 0.3148019,7.22021 0.041403,0.32497 0.075279,0.59566 0.075279,0.60154 0,0.0121 -0.640302,0.01 -0.722098,-0.003 z"
       id="path6808-32"
       inkscape:connector-curvature="0" />
    <path
       style="fill:#008000;fill-opacity:1;stroke:#00e800;stroke-width:0.00545811;stroke-miterlimit:4;stroke-dasharray:none;stroke-opacity:1"
       d="m 5.2670555,297.1021 c -0.06098,-0.0765 -0.1225495,-2.30023 -0.1039355,-3.75392 0.017516,-1.3679 0.082613,-2.25884 0.2322675,-3.17886 0.056117,-0.34498 0.1742913,-0.89393 0.2021419,-0.93899 0.012579,-0.0204 0.00363,0.12315 -0.039635,0.63578 -0.033698,0.39925 -0.033576,1.96644 2.044e-4,2.62134 0.064688,1.25409 0.1773836,2.50333 0.3551348,3.9367 0.041015,0.33073 0.074573,0.62343 0.074573,0.65044 v 0.0491 H 5.636038 c -0.2293525,0 -0.3577591,-0.008 -0.3689826,-0.0216 z"
       id="path6810-9"
       inkscape:connector-curvature="0" />
    <path
       style="fill:#008000;fill-opacity:1;stroke:#00e800;stroke-width:0.00545811;stroke-miterlimit:4;stroke-dasharray:none;stroke-opacity:1"
       d="m 5.2681842,297.10353 c -0.049166,-0.0617 -0.112945,-1.91154 -0.1126147,-3.26628 4.357e-4,-1.78326 0.108212,-3.10096 0.3440061,-4.20588 0.065885,-0.30873 0.1251509,-0.46008 0.099583,-0.25431 -0.054707,0.4403 -0.070583,1.01068 -0.057987,2.08338 0.018947,1.61353 0.1278904,3.05178 0.3840779,5.0705 0.034407,0.27111 0.062557,0.5154 0.062557,0.54285 v 0.0499 H 5.6360379 c -0.214445,0 -0.358048,-0.008 -0.3678538,-0.0202 z"
       id="path6812-33"
       inkscape:connector-curvature="0" />
    <path
       style="fill:#008000;fill-opacity:1;stroke:#00e800;stroke-width:0.00545811;stroke-miterlimit:4;stroke-dasharray:none;stroke-opacity:1"
       d="m 5.3317564,297.1074 c -0.058705,-0.0116 -0.064247,-0.0233 -0.079874,-0.16815 -0.076934,-0.7132 -0.1100833,-3.90731 -0.050137,-4.83104 0.063517,-0.97875 0.1431354,-1.65284 0.2714886,-2.29856 0.081712,-0.41108 0.1133886,-0.51319 0.097102,-0.313 -0.00656,0.0807 -0.018889,0.62098 -0.027387,1.20064 -0.026734,1.82359 0.06392,3.26366 0.3578944,5.68527 0.047674,0.39271 0.086743,0.72102 0.086821,0.72958 1.639e-4,0.018 -0.5616168,0.0139 -0.6559082,-0.005 z"
       id="path6814-46"
       inkscape:connector-curvature="0" />
    <path
       style="fill:#008000;fill-opacity:1;stroke:#00e800;stroke-width:0.00545811;stroke-miterlimit:4;stroke-dasharray:none;stroke-opacity:1"
       d="m 5.4146646,297.11165 c -0.1261166,-0.006 -0.1321628,-0.008 -0.1458764,-0.0685 -0.068219,-0.29841 -0.1170906,-3.88634 -0.065601,-4.8162 0.053879,-0.97303 0.1410353,-1.74662 0.2695469,-2.39247 0.034896,-0.17538 0.074469,-0.33823 0.087938,-0.3619 0.021051,-0.037 0.022613,-0.0348 0.011122,0.0156 -0.00735,0.0323 -0.020479,0.56046 -0.029168,1.17374 -0.026598,1.87714 0.056439,3.23983 0.3433093,5.63392 0.052858,0.44113 0.090709,0.80909 0.084113,0.81769 -0.01092,0.0142 -0.2090041,0.0135 -0.555383,-0.002 z"
       id="path6816-6"
       inkscape:connector-curvature="0" />
    <path
       style="fill:#008000;fill-opacity:1;stroke:#00e800;stroke-width:0.00545811;stroke-miterlimit:4;stroke-dasharray:none;stroke-opacity:1"
       d="m 5.4967002,297.11777 -0.2009304,-0.01 -0.01859,-0.0685 c -0.046181,-0.17008 -0.079235,-1.39825 -0.081605,-3.03214 -0.00218,-1.50321 0.00419,-1.84862 0.042232,-2.28878 0.058335,-0.67502 0.1064471,-1.07891 0.1829262,-1.53564 0.1310136,-0.7824 0.131241,-0.78142 0.1180778,0.50862 -0.02045,2.00414 0.047877,3.09455 0.3643431,5.81449 0.037844,0.32526 0.062567,0.59622 0.054941,0.60213 -0.020811,0.0161 -0.2351897,0.0206 -0.4613934,0.01 z"
       id="path6818-17"
       inkscape:connector-curvature="0" />
    <path
       style="fill:#008000;fill-opacity:1;stroke:#00e800;stroke-width:0.00545811;stroke-miterlimit:4;stroke-dasharray:none;stroke-opacity:1"
       d="m 5.3119276,297.11137 c -0.069777,-0.035 -0.089962,-0.68489 -0.091854,-2.95723 -0.00164,-1.96697 0.00355,-2.2935 0.042532,-2.68002 0.061188,-0.60662 0.1114821,-0.98392 0.1877527,-1.40848 0.035757,-0.19905 0.071957,-0.40152 0.080444,-0.44993 0.00849,-0.0484 0.011461,0.47536 0.00661,1.16395 -0.013684,1.94176 0.037853,2.83808 0.2986354,5.19377 0.054194,0.48954 0.1019942,0.9473 0.1062225,1.01724 l 0.00769,0.12715 -0.3027924,0.005 c -0.1665358,0.003 -0.3173927,-0.002 -0.3352375,-0.0114 z"
       id="path6820-1"
       inkscape:connector-curvature="0" />
    <path
       style="fill:#00ff00;fill-opacity:1;stroke:#00e800;stroke-width:0.00545811;stroke-miterlimit:4;stroke-dasharray:none;stroke-opacity:1"
       d="m 5.377119,297.1129 c -0.037501,-0.004 -0.074704,-0.024 -0.082672,-0.0435 -0.066463,-0.16234 -0.1172224,-3.92425 -0.066523,-4.93018 0.039881,-0.79128 0.1791394,-1.9635 0.2801352,-2.35807 0.011016,-0.043 0.021351,0.50275 0.022966,1.21286 0.00446,1.96053 0.041677,2.58232 0.2938921,4.91012 0.1273317,1.1752 0.1284648,1.19412 0.07251,1.21077 -0.042773,0.0127 -0.4074701,0.0113 -0.5203083,-0.002 z"
       id="path6822-1"
       inkscape:connector-curvature="0" />
    <path
       style="fill:none;stroke:#005600;stroke-width:0.13300304;stroke-linecap:butt;stroke-linejoin:miter;stroke-miterlimit:4;stroke-dasharray:none;stroke-opacity:1"
       d="m 5.9543196,297.12152 c 0,0 -0.5803522,-7.86401 0.9840752,-9.19424"
       id="path6802-0"
       inkscape:connector-curvature="0" />
    <path
       style="fill:none;stroke:#005600;stroke-width:0.13300304;stroke-linecap:butt;stroke-linejoin:miter;stroke-miterlimit:4;stroke-dasharray:none;stroke-opacity:1"
       d="m 6.913162,297.11691 c 0,0 -1.1354713,-7.864 0.025232,-9.2138"
       id="path6804-6"
       inkscape:connector-curvature="0" />
    <path
       style="fill:none;stroke:#004c00;stroke-width:0.08645197;stroke-linecap:butt;stroke-linejoin:miter;stroke-miterlimit:4;stroke-dasharray:none;stroke-opacity:1"
       d="m 5.9543196,297.0637 0.9588424,0.0195"
       id="path6806-9"
       inkscape:connector-curvature="0" />
    <path
       style="fill:#008000;fill-opacity:1;stroke:#00e800;stroke-width:0.00545811;stroke-miterlimit:4;stroke-dasharray:none;stroke-opacity:1"
       d="m 6.0927499,297.1129 c -0.049825,-0.008 -0.054519,-0.0242 -0.069545,-0.24676 -0.080199,-1.1876 -0.1048204,-3.75553 -0.045146,-4.70858 0.069123,-1.10394 0.1690807,-1.93275 0.3078885,-2.55287 0.065366,-0.29203 0.1550942,-0.6191 0.1672541,-0.60967 0.00547,0.004 -0.00732,0.13875 -0.028434,0.29891 -0.1921871,1.45813 -0.074018,4.16842 0.3148019,7.22021 0.041403,0.32497 0.075279,0.59566 0.075279,0.60154 0,0.0121 -0.640302,0.01 -0.7220981,-0.003 z"
       id="path6808-8"
       inkscape:connector-curvature="0" />
    <path
       style="fill:#008000;fill-opacity:1;stroke:#00e800;stroke-width:0.00545811;stroke-miterlimit:4;stroke-dasharray:none;stroke-opacity:1"
       d="m 6.0688641,297.1021 c -0.06098,-0.0765 -0.1225495,-2.30023 -0.1039355,-3.75392 0.017516,-1.3679 0.082613,-2.25884 0.2322675,-3.17886 0.056117,-0.34498 0.1742913,-0.89393 0.2021418,-0.93899 0.012579,-0.0204 0.00363,0.12315 -0.039635,0.63578 -0.033698,0.39925 -0.033576,1.96644 2.044e-4,2.62134 0.064688,1.25409 0.1773836,2.50333 0.3551348,3.9367 0.041015,0.33073 0.074573,0.62343 0.074573,0.65044 v 0.0491 H 6.4378466 c -0.2293525,0 -0.3577591,-0.008 -0.3689827,-0.0216 z"
       id="path6810-5"
       inkscape:connector-curvature="0" />
    <path
       style="fill:#008000;fill-opacity:1;stroke:#00e800;stroke-width:0.00545811;stroke-miterlimit:4;stroke-dasharray:none;stroke-opacity:1"
       d="m 6.0699928,297.10353 c -0.049166,-0.0617 -0.112945,-1.91154 -0.1126147,-3.26628 4.357e-4,-1.78326 0.1082119,-3.10096 0.3440061,-4.20588 0.065885,-0.30873 0.1251509,-0.46008 0.099583,-0.25431 -0.054707,0.4403 -0.070583,1.01068 -0.057987,2.08338 0.018947,1.61353 0.1278904,3.05178 0.3840779,5.0705 0.034407,0.27111 0.062557,0.5154 0.062557,0.54285 v 0.0499 H 6.4378465 c -0.214445,0 -0.358048,-0.008 -0.3678538,-0.0202 z"
       id="path6812-70"
       inkscape:connector-curvature="0" />
    <path
       style="fill:#008000;fill-opacity:1;stroke:#00e800;stroke-width:0.00545811;stroke-miterlimit:4;stroke-dasharray:none;stroke-opacity:1"
       d="m 6.133565,297.1074 c -0.058705,-0.0116 -0.064247,-0.0233 -0.079874,-0.16815 -0.076934,-0.7132 -0.1100833,-3.90731 -0.050137,-4.83104 0.063517,-0.97875 0.1431354,-1.65284 0.2714886,-2.29856 0.081712,-0.41108 0.1133886,-0.51319 0.097102,-0.313 -0.00656,0.0807 -0.018889,0.62098 -0.027387,1.20064 -0.026734,1.82359 0.06392,3.26366 0.3578944,5.68527 0.047674,0.39271 0.086743,0.72102 0.086821,0.72958 1.639e-4,0.018 -0.5616168,0.0139 -0.6559083,-0.005 z"
       id="path6814-9"
       inkscape:connector-curvature="0" />
    <path
       style="fill:#008000;fill-opacity:1;stroke:#00e800;stroke-width:0.00545811;stroke-miterlimit:4;stroke-dasharray:none;stroke-opacity:1"
       d="m 6.2164732,297.11165 c -0.1261166,-0.006 -0.1321629,-0.008 -0.1458764,-0.0685 -0.068219,-0.29841 -0.1170906,-3.88634 -0.065601,-4.8162 0.053879,-0.97303 0.1410353,-1.74662 0.2695469,-2.39247 0.034896,-0.17538 0.074469,-0.33823 0.087938,-0.3619 0.021051,-0.037 0.022613,-0.0348 0.011122,0.0156 -0.00735,0.0323 -0.020479,0.56046 -0.029168,1.17374 -0.026598,1.87714 0.056439,3.23983 0.3433093,5.63392 0.052858,0.44113 0.090709,0.80909 0.084113,0.81769 -0.01092,0.0142 -0.2090041,0.0135 -0.555383,-0.002 z"
       id="path6816-40"
       inkscape:connector-curvature="0" />
    <path
       style="fill:#008000;fill-opacity:1;stroke:#00e800;stroke-width:0.00545811;stroke-miterlimit:4;stroke-dasharray:none;stroke-opacity:1"
       d="m 6.2985088,297.11777 -0.2009304,-0.01 -0.01859,-0.0685 c -0.046181,-0.17008 -0.079235,-1.39825 -0.081605,-3.03214 -0.00218,-1.50321 0.00419,-1.84862 0.042232,-2.28878 0.058335,-0.67502 0.1064471,-1.07891 0.1829262,-1.53564 0.1310136,-0.7824 0.131241,-0.78142 0.1180778,0.50862 -0.02045,2.00414 0.047877,3.09455 0.3643431,5.81449 0.037844,0.32526 0.062567,0.59622 0.054941,0.60213 -0.020811,0.0161 -0.2351897,0.0206 -0.4613934,0.01 z"
       id="path6818-18"
       inkscape:connector-curvature="0" />
    <path
       style="fill:#008000;fill-opacity:1;stroke:#00e800;stroke-width:0.00545811;stroke-miterlimit:4;stroke-dasharray:none;stroke-opacity:1"
       d="m 6.1137362,297.11137 c -0.069777,-0.035 -0.089962,-0.68489 -0.091854,-2.95723 -0.00164,-1.96697 0.00355,-2.2935 0.042532,-2.68002 0.061188,-0.60662 0.1114821,-0.98392 0.1877527,-1.40848 0.035757,-0.19905 0.071957,-0.40152 0.080444,-0.44993 0.00849,-0.0484 0.011461,0.47536 0.00661,1.16395 -0.013684,1.94176 0.037853,2.83808 0.2986354,5.19377 0.054194,0.48954 0.1019942,0.9473 0.1062225,1.01724 l 0.00769,0.12715 -0.3027924,0.005 c -0.1665358,0.003 -0.3173927,-0.002 -0.3352375,-0.0114 z"
       id="path6820-22"
       inkscape:connector-curvature="0" />
    <path
       style="fill:#00ff00;fill-opacity:1;stroke:#00e800;stroke-width:0.00545811;stroke-miterlimit:4;stroke-dasharray:none;stroke-opacity:1"
       d="m 6.1789276,297.1129 c -0.037501,-0.004 -0.074704,-0.024 -0.082672,-0.0435 -0.066463,-0.16234 -0.1172224,-3.92425 -0.066523,-4.93018 0.039881,-0.79128 0.1791394,-1.9635 0.2801352,-2.35807 0.011016,-0.043 0.021351,0.50275 0.022966,1.21286 0.00446,1.96053 0.041677,2.58232 0.2938921,4.91012 0.1273317,1.1752 0.1284648,1.19412 0.07251,1.21077 -0.042773,0.0127 -0.4074701,0.0113 -0.5203083,-0.002 z"
       id="path6822-9"
       inkscape:connector-curvature="0" />
    <path
       style="fill:none;stroke:#005600;stroke-width:0.13300304;stroke-linecap:butt;stroke-linejoin:miter;stroke-miterlimit:4;stroke-dasharray:none;stroke-opacity:1"
       d="m 6.5723803,297.12152 c 0,0 -0.5803521,-7.86401 0.9840753,-9.19424"
       id="path6802-4"
       inkscape:connector-curvature="0" />
    <path
       style="fill:none;stroke:#005600;stroke-width:0.13300304;stroke-linecap:butt;stroke-linejoin:miter;stroke-miterlimit:4;stroke-dasharray:none;stroke-opacity:1"
       d="m 7.5312228,297.11691 c 0,0 -1.1354714,-7.864 0.025232,-9.2138"
       id="path6804-5"
       inkscape:connector-curvature="0" />
    <path
       style="fill:none;stroke:#004c00;stroke-width:0.08645197;stroke-linecap:butt;stroke-linejoin:miter;stroke-miterlimit:4;stroke-dasharray:none;stroke-opacity:1"
       d="m 6.5723803,297.0637 0.9588425,0.0195"
       id="path6806-34"
       inkscape:connector-curvature="0" />
    <path
       style="fill:#008000;fill-opacity:1;stroke:#00e800;stroke-width:0.00545811;stroke-miterlimit:4;stroke-dasharray:none;stroke-opacity:1"
       d="m 6.7108107,297.1129 c -0.049825,-0.008 -0.054519,-0.0242 -0.069545,-0.24676 -0.080199,-1.1876 -0.1048204,-3.75553 -0.045146,-4.70858 0.069123,-1.10394 0.1690807,-1.93275 0.3078884,-2.55287 0.065366,-0.29203 0.1550942,-0.6191 0.1672542,-0.60967 0.00547,0.004 -0.00732,0.13875 -0.028434,0.29891 -0.1921871,1.45813 -0.074018,4.16842 0.3148019,7.22021 0.041403,0.32497 0.075279,0.59566 0.075279,0.60154 0,0.0121 -0.640302,0.01 -0.7220981,-0.003 z"
       id="path6808-30"
       inkscape:connector-curvature="0" />
    <path
       style="fill:#008000;fill-opacity:1;stroke:#00e800;stroke-width:0.00545811;stroke-miterlimit:4;stroke-dasharray:none;stroke-opacity:1"
       d="m 6.6869248,297.1021 c -0.06098,-0.0765 -0.1225495,-2.30023 -0.1039355,-3.75392 0.017516,-1.3679 0.082613,-2.25884 0.2322676,-3.17886 0.056117,-0.34498 0.1742912,-0.89393 0.2021418,-0.93899 0.012579,-0.0204 0.00363,0.12315 -0.039635,0.63578 -0.033698,0.39925 -0.033576,1.96644 2.044e-4,2.62134 0.064688,1.25409 0.1773836,2.50333 0.3551348,3.9367 0.041015,0.33073 0.074573,0.62343 0.074573,0.65044 v 0.0491 H 7.0559074 c -0.2293525,0 -0.3577591,-0.008 -0.3689827,-0.0216 z"
       id="path6810-36"
       inkscape:connector-curvature="0" />
    <path
       style="fill:#008000;fill-opacity:1;stroke:#00e800;stroke-width:0.00545811;stroke-miterlimit:4;stroke-dasharray:none;stroke-opacity:1"
       d="m 6.6880536,297.10353 c -0.049166,-0.0617 -0.1129451,-1.91154 -0.1126148,-3.26628 4.357e-4,-1.78326 0.108212,-3.10096 0.3440062,-4.20588 0.065885,-0.30873 0.1251508,-0.46008 0.099583,-0.25431 -0.054707,0.4403 -0.070583,1.01068 -0.057987,2.08338 0.018947,1.61353 0.1278904,3.05178 0.3840779,5.0705 0.034407,0.27111 0.062557,0.5154 0.062557,0.54285 v 0.0499 H 7.0559073 c -0.214445,0 -0.358048,-0.008 -0.3678539,-0.0202 z"
       id="path6812-6"
       inkscape:connector-curvature="0" />
    <path
       style="fill:#008000;fill-opacity:1;stroke:#00e800;stroke-width:0.00545811;stroke-miterlimit:4;stroke-dasharray:none;stroke-opacity:1"
       d="m 6.7516258,297.1074 c -0.058705,-0.0116 -0.064247,-0.0233 -0.079874,-0.16815 -0.076934,-0.7132 -0.1100834,-3.90731 -0.050137,-4.83104 0.063517,-0.97875 0.1431354,-1.65284 0.2714885,-2.29856 0.081712,-0.41108 0.1133887,-0.51319 0.097102,-0.313 -0.00656,0.0807 -0.018889,0.62098 -0.027387,1.20064 -0.026734,1.82359 0.06392,3.26366 0.3578945,5.68527 0.047674,0.39271 0.086743,0.72102 0.086821,0.72958 1.639e-4,0.018 -0.5616168,0.0139 -0.6559083,-0.005 z"
       id="path6814-0"
       inkscape:connector-curvature="0" />
    <path
       style="fill:#008000;fill-opacity:1;stroke:#00e800;stroke-width:0.00545811;stroke-miterlimit:4;stroke-dasharray:none;stroke-opacity:1"
       d="m 6.834534,297.11165 c -0.1261167,-0.006 -0.1321629,-0.008 -0.1458765,-0.0685 -0.068219,-0.29841 -0.1170906,-3.88634 -0.065601,-4.8162 0.053879,-0.97303 0.1410353,-1.74662 0.269547,-2.39247 0.034896,-0.17538 0.074469,-0.33823 0.087938,-0.3619 0.021051,-0.037 0.022613,-0.0348 0.011122,0.0156 -0.00735,0.0323 -0.020479,0.56046 -0.029168,1.17374 -0.026598,1.87714 0.056439,3.23983 0.3433093,5.63392 0.052858,0.44113 0.090709,0.80909 0.084113,0.81769 -0.01092,0.0142 -0.2090041,0.0135 -0.555383,-0.002 z"
       id="path6816-9"
       inkscape:connector-curvature="0" />
    <path
       style="fill:#008000;fill-opacity:1;stroke:#00e800;stroke-width:0.00545811;stroke-miterlimit:4;stroke-dasharray:none;stroke-opacity:1"
       d="m 6.9165695,297.11777 -0.2009304,-0.01 -0.01859,-0.0685 c -0.046181,-0.17008 -0.079235,-1.39825 -0.081605,-3.03214 -0.00218,-1.50321 0.00419,-1.84862 0.042232,-2.28878 0.058335,-0.67502 0.1064471,-1.07891 0.1829263,-1.53564 0.1310136,-0.7824 0.131241,-0.78142 0.1180778,0.50862 -0.02045,2.00414 0.047877,3.09455 0.3643431,5.81449 0.037844,0.32526 0.062567,0.59622 0.054941,0.60213 -0.020811,0.0161 -0.2351897,0.0206 -0.4613934,0.01 z"
       id="path6818-6"
       inkscape:connector-curvature="0" />
    <path
       style="fill:#008000;fill-opacity:1;stroke:#00e800;stroke-width:0.00545811;stroke-miterlimit:4;stroke-dasharray:none;stroke-opacity:1"
       d="m 6.731797,297.11137 c -0.069777,-0.035 -0.089962,-0.68489 -0.091854,-2.95723 -0.00164,-1.96697 0.00355,-2.2935 0.042532,-2.68002 0.061188,-0.60662 0.1114821,-0.98392 0.1877527,-1.40848 0.035757,-0.19905 0.071957,-0.40152 0.080444,-0.44993 0.00849,-0.0484 0.011461,0.47536 0.00661,1.16395 -0.013684,1.94176 0.037853,2.83808 0.2986354,5.19377 0.054194,0.48954 0.1019942,0.9473 0.1062225,1.01724 l 0.00769,0.12715 -0.3027925,0.005 c -0.1665357,0.003 -0.3173926,-0.002 -0.3352374,-0.0114 z"
       id="path6820-26"
       inkscape:connector-curvature="0" />
    <path
       style="fill:#00ff00;fill-opacity:1;stroke:#00e800;stroke-width:0.00545811;stroke-miterlimit:4;stroke-dasharray:none;stroke-opacity:1"
       d="m 6.7969884,297.1129 c -0.037501,-0.004 -0.074704,-0.024 -0.082672,-0.0435 -0.066463,-0.16234 -0.1172224,-3.92425 -0.066523,-4.93018 0.039881,-0.79128 0.1791394,-1.9635 0.2801352,-2.35807 0.011016,-0.043 0.021351,0.50275 0.022966,1.21286 0.00446,1.96053 0.041677,2.58232 0.2938921,4.91012 0.1273317,1.1752 0.1284648,1.19412 0.07251,1.21077 -0.042773,0.0127 -0.4074701,0.0113 -0.5203083,-0.002 z"
       id="path6822-5"
       inkscape:connector-curvature="0" />
    <path
       style="fill:none;stroke:#005600;stroke-width:0.13300304;stroke-linecap:butt;stroke-linejoin:miter;stroke-miterlimit:4;stroke-dasharray:none;stroke-opacity:1"
       d="m 7.2906672,297.12152 c 0,0 -0.5803521,-7.86401 0.9840753,-9.19424"
       id="path6802-8"
       inkscape:connector-curvature="0" />
    <path
       style="fill:none;stroke:#005600;stroke-width:0.13300304;stroke-linecap:butt;stroke-linejoin:miter;stroke-miterlimit:4;stroke-dasharray:none;stroke-opacity:1"
       d="m 8.2495097,297.11691 c 0,0 -1.1354714,-7.864 0.025232,-9.2138"
       id="path6804-46"
       inkscape:connector-curvature="0" />
    <path
       style="fill:none;stroke:#004c00;stroke-width:0.08645197;stroke-linecap:butt;stroke-linejoin:miter;stroke-miterlimit:4;stroke-dasharray:none;stroke-opacity:1"
       d="m 7.2906672,297.0637 0.9588425,0.0195"
       id="path6806-7"
       inkscape:connector-curvature="0" />
    <path
       style="fill:#008000;fill-opacity:1;stroke:#00e800;stroke-width:0.00545811;stroke-miterlimit:4;stroke-dasharray:none;stroke-opacity:1"
       d="m 7.4290975,297.1129 c -0.049825,-0.008 -0.054519,-0.0242 -0.069545,-0.24676 -0.080199,-1.1876 -0.1048204,-3.75553 -0.045146,-4.70858 0.069123,-1.10394 0.1690807,-1.93275 0.3078885,-2.55287 0.065366,-0.29203 0.1550942,-0.6191 0.1672541,-0.60967 0.00547,0.004 -0.00732,0.13875 -0.028434,0.29891 -0.1921871,1.45813 -0.074018,4.16842 0.3148019,7.22021 0.041403,0.32497 0.075279,0.59566 0.075279,0.60154 0,0.0121 -0.640302,0.01 -0.722098,-0.003 z"
       id="path6808-2"
       inkscape:connector-curvature="0" />
    <path
       style="fill:#008000;fill-opacity:1;stroke:#00e800;stroke-width:0.00545811;stroke-miterlimit:4;stroke-dasharray:none;stroke-opacity:1"
       d="m 7.4052117,297.1021 c -0.06098,-0.0765 -0.1225495,-2.30023 -0.1039355,-3.75392 0.017516,-1.3679 0.082613,-2.25884 0.2322675,-3.17886 0.056117,-0.34498 0.1742913,-0.89393 0.2021419,-0.93899 0.012579,-0.0204 0.00363,0.12315 -0.039635,0.63578 -0.033698,0.39925 -0.033576,1.96644 2.044e-4,2.62134 0.064688,1.25409 0.1773836,2.50333 0.3551348,3.9367 0.041015,0.33073 0.074573,0.62343 0.074573,0.65044 v 0.0491 H 7.7741942 c -0.2293525,0 -0.3577591,-0.008 -0.3689826,-0.0216 z"
       id="path6810-66"
       inkscape:connector-curvature="0" />
    <path
       style="fill:#008000;fill-opacity:1;stroke:#00e800;stroke-width:0.00545811;stroke-miterlimit:4;stroke-dasharray:none;stroke-opacity:1"
       d="m 7.4063404,297.10353 c -0.049166,-0.0617 -0.112945,-1.91154 -0.1126147,-3.26628 4.357e-4,-1.78326 0.108212,-3.10096 0.3440061,-4.20588 0.065885,-0.30873 0.1251509,-0.46008 0.099583,-0.25431 -0.054707,0.4403 -0.070583,1.01068 -0.057987,2.08338 0.018947,1.61353 0.1278904,3.05178 0.3840779,5.0705 0.034407,0.27111 0.062557,0.5154 0.062557,0.54285 v 0.0499 H 7.7741941 c -0.214445,0 -0.358048,-0.008 -0.3678538,-0.0202 z"
       id="path6812-4"
       inkscape:connector-curvature="0" />
    <path
       style="fill:#008000;fill-opacity:1;stroke:#00e800;stroke-width:0.00545811;stroke-miterlimit:4;stroke-dasharray:none;stroke-opacity:1"
       d="m 7.4699126,297.1074 c -0.058705,-0.0116 -0.064247,-0.0233 -0.079874,-0.16815 -0.076934,-0.7132 -0.1100833,-3.90731 -0.050137,-4.83104 0.063517,-0.97875 0.1431354,-1.65284 0.2714886,-2.29856 0.081712,-0.41108 0.1133886,-0.51319 0.097102,-0.313 -0.00656,0.0807 -0.018889,0.62098 -0.027387,1.20064 -0.026734,1.82359 0.06392,3.26366 0.3578944,5.68527 0.047674,0.39271 0.086743,0.72102 0.086821,0.72958 1.639e-4,0.018 -0.5616167,0.0139 -0.6559082,-0.005 z"
       id="path6814-5"
       inkscape:connector-curvature="0" />
    <path
       style="fill:#008000;fill-opacity:1;stroke:#00e800;stroke-width:0.00545811;stroke-miterlimit:4;stroke-dasharray:none;stroke-opacity:1"
       d="m 7.5528208,297.11165 c -0.1261166,-0.006 -0.1321628,-0.008 -0.1458764,-0.0685 -0.068219,-0.29841 -0.1170906,-3.88634 -0.065601,-4.8162 0.053879,-0.97303 0.1410353,-1.74662 0.2695469,-2.39247 0.034896,-0.17538 0.074469,-0.33823 0.087938,-0.3619 0.021051,-0.037 0.022613,-0.0348 0.011122,0.0156 -0.00735,0.0323 -0.020479,0.56046 -0.029168,1.17374 -0.026598,1.87714 0.056439,3.23983 0.3433093,5.63392 0.052858,0.44113 0.090709,0.80909 0.084113,0.81769 -0.01092,0.0142 -0.2090041,0.0135 -0.555383,-0.002 z"
       id="path6816-43"
       inkscape:connector-curvature="0" />
    <path
       style="fill:#008000;fill-opacity:1;stroke:#00e800;stroke-width:0.00545811;stroke-miterlimit:4;stroke-dasharray:none;stroke-opacity:1"
       d="m 7.6348564,297.11777 -0.2009304,-0.01 -0.01859,-0.0685 c -0.046181,-0.17008 -0.079235,-1.39825 -0.081605,-3.03214 -0.00218,-1.50321 0.00419,-1.84862 0.042232,-2.28878 0.058335,-0.67502 0.1064471,-1.07891 0.1829262,-1.53564 0.1310136,-0.7824 0.131241,-0.78142 0.1180778,0.50862 -0.02045,2.00414 0.047877,3.09455 0.3643431,5.81449 0.037844,0.32526 0.062567,0.59622 0.054941,0.60213 -0.020811,0.0161 -0.2351897,0.0206 -0.4613934,0.01 z"
       id="path6818-81"
       inkscape:connector-curvature="0" />
    <path
       style="fill:#008000;fill-opacity:1;stroke:#00e800;stroke-width:0.00545811;stroke-miterlimit:4;stroke-dasharray:none;stroke-opacity:1"
       d="m 7.4500838,297.11137 c -0.069777,-0.035 -0.089962,-0.68489 -0.091854,-2.95723 -0.00164,-1.96697 0.00355,-2.2935 0.042532,-2.68002 0.061188,-0.60662 0.1114821,-0.98392 0.1877527,-1.40848 0.035757,-0.19905 0.071957,-0.40152 0.080444,-0.44993 0.00849,-0.0484 0.011461,0.47536 0.00661,1.16395 -0.013684,1.94176 0.037853,2.83808 0.2986354,5.19377 0.054194,0.48954 0.1019942,0.9473 0.1062225,1.01724 l 0.00769,0.12715 -0.3027924,0.005 c -0.1665358,0.003 -0.3173927,-0.002 -0.3352375,-0.0114 z"
       id="path6820-29"
       inkscape:connector-curvature="0" />
    <path
       style="fill:#00ff00;fill-opacity:1;stroke:#00e800;stroke-width:0.00545811;stroke-miterlimit:4;stroke-dasharray:none;stroke-opacity:1"
       d="m 7.5152752,297.1129 c -0.037501,-0.004 -0.074704,-0.024 -0.082672,-0.0435 -0.066463,-0.16234 -0.1172224,-3.92425 -0.066523,-4.93018 0.039881,-0.79128 0.1791394,-1.9635 0.2801352,-2.35807 0.011016,-0.043 0.021351,0.50275 0.022966,1.21286 0.00446,1.96053 0.041677,2.58232 0.2938921,4.91012 0.1273317,1.1752 0.1284648,1.19412 0.07251,1.21077 -0.042773,0.0127 -0.4074701,0.0113 -0.5203083,-0.002 z"
       id="path6822-36"
       inkscape:connector-curvature="0" />
    <path
       style="fill:none;stroke:#005600;stroke-width:0.13300304;stroke-linecap:butt;stroke-linejoin:miter;stroke-miterlimit:4;stroke-dasharray:none;stroke-opacity:1"
       d="m 7.5746411,297.12152 c 0,0 -0.5803521,-7.86401 0.9840752,-9.19424"
       id="path6802-17"
       inkscape:connector-curvature="0" />
    <path
       style="fill:none;stroke:#005600;stroke-width:0.13300304;stroke-linecap:butt;stroke-linejoin:miter;stroke-miterlimit:4;stroke-dasharray:none;stroke-opacity:1"
       d="m 8.5334835,297.11691 c 0,0 -1.1354713,-7.864 0.025232,-9.2138"
       id="path6804-8"
       inkscape:connector-curvature="0" />
    <path
       style="fill:none;stroke:#004c00;stroke-width:0.08645197;stroke-linecap:butt;stroke-linejoin:miter;stroke-miterlimit:4;stroke-dasharray:none;stroke-opacity:1"
       d="m 7.5746411,297.0637 0.9588424,0.0195"
       id="path6806-85"
       inkscape:connector-curvature="0" />
    <path
       style="fill:#008000;fill-opacity:1;stroke:#00e800;stroke-width:0.00545811;stroke-miterlimit:4;stroke-dasharray:none;stroke-opacity:1"
       d="m 7.7130714,297.1129 c -0.049825,-0.008 -0.054519,-0.0242 -0.069545,-0.24676 -0.080199,-1.1876 -0.1048204,-3.75553 -0.045146,-4.70858 0.069123,-1.10394 0.1690807,-1.93275 0.3078885,-2.55287 0.065366,-0.29203 0.1550942,-0.6191 0.1672541,-0.60967 0.00547,0.004 -0.00732,0.13875 -0.028434,0.29891 -0.1921871,1.45813 -0.074018,4.16842 0.3148019,7.22021 0.041403,0.32497 0.075279,0.59566 0.075279,0.60154 0,0.0121 -0.640302,0.01 -0.722098,-0.003 z"
       id="path6808-07"
       inkscape:connector-curvature="0" />
    <path
       style="fill:#008000;fill-opacity:1;stroke:#00e800;stroke-width:0.00545811;stroke-miterlimit:4;stroke-dasharray:none;stroke-opacity:1"
       d="m 7.6891856,297.1021 c -0.06098,-0.0765 -0.1225495,-2.30023 -0.1039355,-3.75392 0.017516,-1.3679 0.082613,-2.25884 0.2322675,-3.17886 0.056117,-0.34498 0.1742913,-0.89393 0.2021419,-0.93899 0.012579,-0.0204 0.00363,0.12315 -0.039635,0.63578 -0.033698,0.39925 -0.033576,1.96644 2.044e-4,2.62134 0.064688,1.25409 0.1773836,2.50333 0.3551348,3.9367 0.041015,0.33073 0.074573,0.62343 0.074573,0.65044 v 0.0491 H 8.0581681 c -0.2293525,0 -0.3577591,-0.008 -0.3689826,-0.0216 z"
       id="path6810-4"
       inkscape:connector-curvature="0" />
    <path
       style="fill:#008000;fill-opacity:1;stroke:#00e800;stroke-width:0.00545811;stroke-miterlimit:4;stroke-dasharray:none;stroke-opacity:1"
       d="m 7.6903143,297.10353 c -0.049166,-0.0617 -0.112945,-1.91154 -0.1126147,-3.26628 4.357e-4,-1.78326 0.108212,-3.10096 0.3440061,-4.20588 0.065885,-0.30873 0.1251509,-0.46008 0.099583,-0.25431 -0.054707,0.4403 -0.070583,1.01068 -0.057987,2.08338 0.018947,1.61353 0.1278904,3.05178 0.3840779,5.0705 0.034407,0.27111 0.062557,0.5154 0.062557,0.54285 v 0.0499 H 8.058168 c -0.214445,0 -0.358048,-0.008 -0.3678538,-0.0202 z"
       id="path6812-41"
       inkscape:connector-curvature="0" />
    <path
       style="fill:#008000;fill-opacity:1;stroke:#00e800;stroke-width:0.00545811;stroke-miterlimit:4;stroke-dasharray:none;stroke-opacity:1"
       d="m 7.7538865,297.1074 c -0.058705,-0.0116 -0.064247,-0.0233 -0.079874,-0.16815 -0.076934,-0.7132 -0.1100833,-3.90731 -0.050137,-4.83104 0.063517,-0.97875 0.1431354,-1.65284 0.2714886,-2.29856 0.081712,-0.41108 0.1133886,-0.51319 0.097102,-0.313 -0.00656,0.0807 -0.018889,0.62098 -0.027387,1.20064 -0.026734,1.82359 0.06392,3.26366 0.3578944,5.68527 0.047674,0.39271 0.086743,0.72102 0.086821,0.72958 1.639e-4,0.018 -0.5616168,0.0139 -0.6559082,-0.005 z"
       id="path6814-37"
       inkscape:connector-curvature="0" />
    <path
       style="fill:#008000;fill-opacity:1;stroke:#00e800;stroke-width:0.00545811;stroke-miterlimit:4;stroke-dasharray:none;stroke-opacity:1"
       d="m 7.8367947,297.11165 c -0.1261166,-0.006 -0.1321628,-0.008 -0.1458764,-0.0685 -0.068219,-0.29841 -0.1170906,-3.88634 -0.065601,-4.8162 0.053879,-0.97303 0.1410353,-1.74662 0.2695469,-2.39247 0.034896,-0.17538 0.074469,-0.33823 0.087938,-0.3619 0.021051,-0.037 0.022613,-0.0348 0.011122,0.0156 -0.00735,0.0323 -0.020479,0.56046 -0.029168,1.17374 -0.026598,1.87714 0.056439,3.23983 0.3433093,5.63392 0.052858,0.44113 0.090709,0.80909 0.084113,0.81769 -0.01092,0.0142 -0.2090041,0.0135 -0.555383,-0.002 z"
       id="path6816-20"
       inkscape:connector-curvature="0" />
    <path
       style="fill:#008000;fill-opacity:1;stroke:#00e800;stroke-width:0.00545811;stroke-miterlimit:4;stroke-dasharray:none;stroke-opacity:1"
       d="m 7.9188303,297.11777 -0.2009304,-0.01 -0.01859,-0.0685 c -0.046181,-0.17008 -0.079235,-1.39825 -0.081605,-3.03214 -0.00218,-1.50321 0.00419,-1.84862 0.042232,-2.28878 0.058335,-0.67502 0.1064471,-1.07891 0.1829262,-1.53564 0.1310136,-0.7824 0.131241,-0.78142 0.1180778,0.50862 -0.02045,2.00414 0.047877,3.09455 0.3643431,5.81449 0.037844,0.32526 0.062567,0.59622 0.054941,0.60213 -0.020811,0.0161 -0.2351897,0.0206 -0.4613934,0.01 z"
       id="path6818-08"
       inkscape:connector-curvature="0" />
    <path
       style="fill:#008000;fill-opacity:1;stroke:#00e800;stroke-width:0.00545811;stroke-miterlimit:4;stroke-dasharray:none;stroke-opacity:1"
       d="m 7.7340577,297.11137 c -0.069777,-0.035 -0.089962,-0.68489 -0.091854,-2.95723 -0.00164,-1.96697 0.00355,-2.2935 0.042532,-2.68002 0.061188,-0.60662 0.1114821,-0.98392 0.1877527,-1.40848 0.035757,-0.19905 0.071957,-0.40152 0.080444,-0.44993 0.00849,-0.0484 0.011461,0.47536 0.00661,1.16395 -0.013684,1.94176 0.037853,2.83808 0.2986354,5.19377 0.054194,0.48954 0.1019942,0.9473 0.1062225,1.01724 l 0.00769,0.12715 -0.3027924,0.005 c -0.1665358,0.003 -0.3173927,-0.002 -0.3352375,-0.0114 z"
       id="path6820-08"
       inkscape:connector-curvature="0" />
    <path
       style="fill:#00ff00;fill-opacity:1;stroke:#00e800;stroke-width:0.00545811;stroke-miterlimit:4;stroke-dasharray:none;stroke-opacity:1"
       d="m 7.7992491,297.1129 c -0.037501,-0.004 -0.074704,-0.024 -0.082672,-0.0435 -0.066463,-0.16234 -0.1172224,-3.92425 -0.066523,-4.93018 0.039881,-0.79128 0.1791394,-1.9635 0.2801352,-2.35807 0.011016,-0.043 0.021351,0.50275 0.022966,1.21286 0.00446,1.96053 0.041677,2.58232 0.2938921,4.91012 0.1273317,1.1752 0.1284648,1.19412 0.07251,1.21077 -0.042773,0.0127 -0.4074701,0.0113 -0.5203083,-0.002 z"
       id="path6822-6"
       inkscape:connector-curvature="0" />
    <path
       style="fill:none;stroke:#005600;stroke-width:0.13300304;stroke-linecap:butt;stroke-linejoin:miter;stroke-miterlimit:4;stroke-dasharray:none;stroke-opacity:1"
       d="m 2.2793635,297.12152 c 0,0 -0.5803521,-7.86401 0.9840753,-9.19424"
       id="path6802-82"
       inkscape:connector-curvature="0" />
    <path
       style="fill:none;stroke:#005600;stroke-width:0.13300304;stroke-linecap:butt;stroke-linejoin:miter;stroke-miterlimit:4;stroke-dasharray:none;stroke-opacity:1"
       d="m 3.238206,297.11691 c 0,0 -1.1354714,-7.864 0.025232,-9.2138"
       id="path6804-3"
       inkscape:connector-curvature="0" />
    <path
       style="fill:none;stroke:#004c00;stroke-width:0.08645197;stroke-linecap:butt;stroke-linejoin:miter;stroke-miterlimit:4;stroke-dasharray:none;stroke-opacity:1"
       d="m 2.2793635,297.0637 0.9588425,0.0195"
       id="path6806-77"
       inkscape:connector-curvature="0" />
    <path
       style="fill:#008000;fill-opacity:1;stroke:#00e800;stroke-width:0.00545811;stroke-miterlimit:4;stroke-dasharray:none;stroke-opacity:1"
       d="m 2.4177939,297.1129 c -0.049825,-0.008 -0.054519,-0.0242 -0.069545,-0.24676 -0.080199,-1.1876 -0.1048204,-3.75553 -0.045146,-4.70858 0.069123,-1.10394 0.1690807,-1.93275 0.3078884,-2.55287 0.065366,-0.29203 0.1550942,-0.6191 0.1672542,-0.60967 0.00547,0.004 -0.00732,0.13875 -0.028434,0.29891 -0.1921871,1.45813 -0.074018,4.16842 0.3148019,7.22021 0.041403,0.32497 0.075279,0.59566 0.075279,0.60154 0,0.0121 -0.640302,0.01 -0.7220981,-0.003 z"
       id="path6808-09"
       inkscape:connector-curvature="0" />
    <path
       style="fill:#008000;fill-opacity:1;stroke:#00e800;stroke-width:0.00545811;stroke-miterlimit:4;stroke-dasharray:none;stroke-opacity:1"
       d="m 2.393908,297.1021 c -0.06098,-0.0765 -0.1225495,-2.30023 -0.1039355,-3.75392 0.017516,-1.3679 0.082613,-2.25884 0.2322676,-3.17886 0.056117,-0.34498 0.1742912,-0.89393 0.2021418,-0.93899 0.012579,-0.0204 0.00363,0.12315 -0.039635,0.63578 -0.033698,0.39925 -0.033576,1.96644 2.044e-4,2.62134 0.064688,1.25409 0.1773836,2.50333 0.3551348,3.9367 0.041015,0.33073 0.074573,0.62343 0.074573,0.65044 v 0.0491 H 2.7628906 c -0.2293525,0 -0.3577591,-0.008 -0.3689827,-0.0216 z"
       id="path6810-76"
       inkscape:connector-curvature="0" />
    <path
       style="fill:#008000;fill-opacity:1;stroke:#00e800;stroke-width:0.00545811;stroke-miterlimit:4;stroke-dasharray:none;stroke-opacity:1"
       d="m 2.3950368,297.10353 c -0.049166,-0.0617 -0.1129451,-1.91154 -0.1126148,-3.26628 4.357e-4,-1.78326 0.108212,-3.10096 0.3440062,-4.20588 0.065885,-0.30873 0.1251508,-0.46008 0.099583,-0.25431 -0.054707,0.4403 -0.070583,1.01068 -0.057987,2.08338 0.018947,1.61353 0.1278904,3.05178 0.3840779,5.0705 0.034407,0.27111 0.062557,0.5154 0.062557,0.54285 v 0.0499 H 2.7628905 c -0.214445,0 -0.358048,-0.008 -0.3678539,-0.0202 z"
       id="path6812-8"
       inkscape:connector-curvature="0" />
    <path
       style="fill:#008000;fill-opacity:1;stroke:#00e800;stroke-width:0.00545811;stroke-miterlimit:4;stroke-dasharray:none;stroke-opacity:1"
       d="m 2.458609,297.1074 c -0.058705,-0.0116 -0.064247,-0.0233 -0.079874,-0.16815 -0.076934,-0.7132 -0.1100834,-3.90731 -0.050137,-4.83104 0.063517,-0.97875 0.1431354,-1.65284 0.2714885,-2.29856 0.081712,-0.41108 0.1133887,-0.51319 0.097102,-0.313 -0.00656,0.0807 -0.018889,0.62098 -0.027387,1.20064 -0.026734,1.82359 0.06392,3.26366 0.3578945,5.68527 0.047674,0.39271 0.086743,0.72102 0.086821,0.72958 1.639e-4,0.018 -0.5616168,0.0139 -0.6559083,-0.005 z"
       id="path6814-03"
       inkscape:connector-curvature="0" />
    <path
       style="fill:#008000;fill-opacity:1;stroke:#00e800;stroke-width:0.00545811;stroke-miterlimit:4;stroke-dasharray:none;stroke-opacity:1"
       d="m 2.5415172,297.11165 c -0.1261167,-0.006 -0.1321629,-0.008 -0.1458765,-0.0685 -0.068219,-0.29841 -0.1170906,-3.88634 -0.065601,-4.8162 0.053879,-0.97303 0.1410353,-1.74662 0.269547,-2.39247 0.034896,-0.17538 0.074469,-0.33823 0.087938,-0.3619 0.021051,-0.037 0.022613,-0.0348 0.011122,0.0156 -0.00735,0.0323 -0.020479,0.56046 -0.029168,1.17374 -0.026598,1.87714 0.056439,3.23983 0.3433093,5.63392 0.052858,0.44113 0.090709,0.80909 0.084113,0.81769 -0.01092,0.0142 -0.2090041,0.0135 -0.555383,-0.002 z"
       id="path6816-8"
       inkscape:connector-curvature="0" />
    <path
       style="fill:#008000;fill-opacity:1;stroke:#00e800;stroke-width:0.00545811;stroke-miterlimit:4;stroke-dasharray:none;stroke-opacity:1"
       d="m 2.6235527,297.11777 -0.2009304,-0.01 -0.01859,-0.0685 c -0.046181,-0.17008 -0.079235,-1.39825 -0.081605,-3.03214 -0.00218,-1.50321 0.00419,-1.84862 0.042232,-2.28878 0.058335,-0.67502 0.1064471,-1.07891 0.1829263,-1.53564 0.1310136,-0.7824 0.131241,-0.78142 0.1180778,0.50862 -0.02045,2.00414 0.047877,3.09455 0.3643431,5.81449 0.037844,0.32526 0.062567,0.59622 0.054941,0.60213 -0.020811,0.0161 -0.2351897,0.0206 -0.4613934,0.01 z"
       id="path6818-19"
       inkscape:connector-curvature="0" />
    <path
       style="fill:#008000;fill-opacity:1;stroke:#00e800;stroke-width:0.00545811;stroke-miterlimit:4;stroke-dasharray:none;stroke-opacity:1"
       d="m 2.4387802,297.11137 c -0.069777,-0.035 -0.089962,-0.68489 -0.091854,-2.95723 -0.00164,-1.96697 0.00355,-2.2935 0.042532,-2.68002 0.061188,-0.60662 0.1114821,-0.98392 0.1877527,-1.40848 0.035757,-0.19905 0.071957,-0.40152 0.080444,-0.44993 0.00849,-0.0484 0.011461,0.47536 0.00661,1.16395 -0.013684,1.94176 0.037853,2.83808 0.2986354,5.19377 0.054194,0.48954 0.1019942,0.9473 0.1062225,1.01724 l 0.00769,0.12715 -0.3027925,0.005 c -0.1665357,0.003 -0.3173926,-0.002 -0.3352374,-0.0114 z"
       id="path6820-12"
       inkscape:connector-curvature="0" />
    <path
       style="fill:#00ff00;fill-opacity:1;stroke:#00e800;stroke-width:0.00545811;stroke-miterlimit:4;stroke-dasharray:none;stroke-opacity:1"
       d="m 2.5039716,297.1129 c -0.037501,-0.004 -0.074704,-0.024 -0.082672,-0.0435 -0.066463,-0.16234 -0.1172224,-3.92425 -0.066523,-4.93018 0.039881,-0.79128 0.1791394,-1.9635 0.2801352,-2.35807 0.011016,-0.043 0.021351,0.50275 0.022966,1.21286 0.00446,1.96053 0.041677,2.58232 0.2938921,4.91012 0.1273317,1.1752 0.1284648,1.19412 0.07251,1.21077 -0.042773,0.0127 -0.4074701,0.0113 -0.5203083,-0.002 z"
       id="path6822-59"
       inkscape:connector-curvature="0" />
  </g>
</svg>
